<svg xmlns="http://www.w3.org/2000/svg">
    <symbol id="star" viewBox="0 -0.5 32 32"  fill="none">
        <path xmlns="http://www.w3.org/2000/svg" fill="#FFCB45" d="m16 0 5.44 9.273L32 11.543l-7.2 8.003 1.089 10.676L16 25.895l-9.888 4.327L7.2 19.546 0 11.544l10.562-2.271L16 0Z"/>
    </symbol>
    <symbol id="viber" viewBox="0 0 52 52"  fill="none">
        <path xmlns="http://www.w3.org/2000/svg" fill="#7F4DA0" fill-rule="evenodd" d="M26 0c14.36 0 26 11.64 26 26S40.36 52 26 52 0 40.36 0 26 11.64 0 26 0Zm1.557 10.59c1.768.221 3.197.647 4.764 1.412 1.542.754 2.529 1.468 3.834 2.766 1.223 1.226 1.902 2.155 2.621 3.597 1.002 2.011 1.573 4.403 1.67 7.035.036.898.01 1.098-.195 1.355-.39.497-1.249.415-1.542-.144-.092-.185-.118-.344-.149-1.062-.051-1.103-.128-1.817-.282-2.669-.607-3.34-2.21-6.008-4.77-7.922-2.132-1.601-4.337-2.381-7.225-2.55-.977-.057-1.146-.093-1.367-.262-.412-.324-.432-1.083-.036-1.437.241-.22.41-.252 1.248-.226.437.015 1.08.067 1.43.108Zm-11.748.555c.18.062.457.205.617.308.976.646 3.695 4.12 4.584 5.855.509.99.678 1.724.519 2.268-.165.585-.437.893-1.655 1.873-.488.395-.946.8-1.017.908-.185.267-.335.79-.335 1.16.006.857.56 2.412 1.29 3.607.566.929 1.578 2.12 2.58 3.033 1.177 1.077 2.215 1.811 3.387 2.391 1.506.75 2.426.94 3.099.626.17-.077.35-.18.406-.226.051-.046.447-.528.879-1.062.832-1.047 1.022-1.216 1.593-1.411.725-.246 1.465-.18 2.21.2.565.293 1.798 1.057 2.595 1.611 1.048.734 3.29 2.561 3.592 2.925.535.657.627 1.499.268 2.427-.38.98-1.86 2.818-2.894 3.603-.935.708-1.598.98-2.472 1.02-.72.037-1.017-.025-1.937-.405-7.216-2.97-12.977-7.404-17.55-13.495-2.39-3.182-4.21-6.481-5.453-9.904-.725-1.996-.76-2.863-.165-3.884.257-.431 1.352-1.499 2.149-2.094 1.325-.985 1.937-1.35 2.425-1.452.334-.072.915-.015 1.285.118Zm12.103 3.166c3.12.457 5.535 1.904 7.118 4.254.889 1.324 1.444 2.879 1.634 4.546.067.611.067 1.725-.005 1.91-.067.174-.283.41-.468.507-.2.103-.627.093-.863-.03-.396-.2-.514-.519-.514-1.38 0-1.33-.345-2.73-.94-3.819a7.805 7.805 0 0 0-2.868-2.981c-1.033-.616-2.56-1.072-3.952-1.185-.504-.041-.782-.144-.972-.365a.934.934 0 0 1-.077-1.16c.267-.415.679-.482 1.907-.297Zm1.094 3.874c1.013.216 1.789.6 2.452 1.222.853.805 1.32 1.78 1.526 3.181.139.913.082 1.273-.241 1.57-.304.277-.864.288-1.203.026-.247-.185-.324-.38-.38-.908-.067-.703-.19-1.196-.401-1.653-.452-.97-1.249-1.472-2.595-1.637-.633-.077-.823-.148-1.028-.39-.375-.446-.232-1.17.288-1.436.195-.098.277-.108.709-.083.267.016.663.062.873.108Z"/>
    </symbol>
    <symbol id="telegram" viewBox="0 0 256 256"  fill="none">
        <path xmlns="http://www.w3.org/2000/svg" fill="#40B3E0" d="M128 0C57.307 0 0 57.307 0 128s57.307 128 128 128 128-57.307 128-128S198.693 0 128 0Z"/>
        <path xmlns="http://www.w3.org/2000/svg" fill="#FFF" d="M190.283 73.63 167.42 188.899s-3.197 7.994-11.99 4.157l-52.758-40.448-19.184-9.272-32.294-10.872s-4.956-1.758-5.436-5.595c-.48-3.837 5.596-5.915 5.596-5.915l128.376-50.36s10.552-4.636 10.552 3.038"/>
        <path xmlns="http://www.w3.org/2000/svg" fill="#D2E5F1" d="M98.618 187.603s-1.54-.144-3.46-6.22c-1.917-6.075-11.67-38.049-11.67-38.049l77.538-49.24s4.477-2.718 4.317 0c0 0 .799.48-1.6 2.718-2.397 2.239-60.91 54.836-60.91 54.836"/>
        <path xmlns="http://www.w3.org/2000/svg" fill="#B5CFE4" d="m122.901 168.115-20.867 19.026s-1.632 1.238-3.416.462l3.996-35.34"/>
    </symbol>
    <symbol id="whatsapp" viewBox="0 0 48 48"  fill="none">
        <path xmlns="http://www.w3.org/2000/svg" fill="#67C15E" fill-rule="evenodd" d="M23.993 0C10.763 0 0 10.765 0 24a23.824 23.824 0 0 0 4.57 14.067l-2.99 8.917 9.224-2.948A23.81 23.81 0 0 0 24.007 48C37.237 48 48 37.234 48 24S37.238 0 24.007 0h-.014Zm-6.7 12.19c-.466-1.114-.818-1.156-1.523-1.185a13.55 13.55 0 0 0-.804-.027c-.918 0-1.877.268-2.455.86-.705.72-2.454 2.398-2.454 5.841s2.51 6.773 2.849 7.239c.353.465 4.895 7.632 11.947 10.553 5.515 2.286 7.152 2.074 8.407 1.806 1.834-.395 4.133-1.75 4.711-3.386.579-1.637.579-3.034.41-3.33-.17-.296-.636-.465-1.34-.818-.706-.353-4.134-2.046-4.783-2.272-.634-.24-1.24-.155-1.72.522-.677.946-1.34 1.905-1.876 2.483-.423.452-1.115.509-1.693.268-.776-.324-2.948-1.086-5.628-3.47-2.074-1.849-3.484-4.148-3.893-4.84-.41-.705-.042-1.114.282-1.495.353-.438.691-.748 1.044-1.157.352-.41.55-.621.776-1.1.24-.466.07-.946-.1-1.3-.168-.352-1.579-3.795-2.157-5.191Z"/>
    </symbol>
    <symbol id="viber" viewBox="0 0 52 52"  fill="none">
        <path xmlns="http://www.w3.org/2000/svg" fill="#7F4DA0" fill-rule="evenodd" d="M26 0c14.36 0 26 11.64 26 26S40.36 52 26 52 0 40.36 0 26 11.64 0 26 0Zm1.557 10.59c1.768.221 3.197.647 4.764 1.412 1.542.754 2.529 1.468 3.834 2.766 1.223 1.226 1.902 2.155 2.621 3.597 1.002 2.011 1.573 4.403 1.67 7.035.036.898.01 1.098-.195 1.355-.39.497-1.249.415-1.542-.144-.092-.185-.118-.344-.149-1.062-.051-1.103-.128-1.817-.282-2.669-.607-3.34-2.21-6.008-4.77-7.922-2.132-1.601-4.337-2.381-7.225-2.55-.977-.057-1.146-.093-1.367-.262-.412-.324-.432-1.083-.036-1.437.241-.22.41-.252 1.248-.226.437.015 1.08.067 1.43.108Zm-11.748.555c.18.062.457.205.617.308.976.646 3.695 4.12 4.584 5.855.509.99.678 1.724.519 2.268-.165.585-.437.893-1.655 1.873-.488.395-.946.8-1.017.908-.185.267-.335.79-.335 1.16.006.857.56 2.412 1.29 3.607.566.929 1.578 2.12 2.58 3.033 1.177 1.077 2.215 1.811 3.387 2.391 1.506.75 2.426.94 3.099.626.17-.077.35-.18.406-.226.051-.046.447-.528.879-1.062.832-1.047 1.022-1.216 1.593-1.411.725-.246 1.465-.18 2.21.2.565.293 1.798 1.057 2.595 1.611 1.048.734 3.29 2.561 3.592 2.925.535.657.627 1.499.268 2.427-.38.98-1.86 2.818-2.894 3.603-.935.708-1.598.98-2.472 1.02-.72.037-1.017-.025-1.937-.405-7.216-2.97-12.977-7.404-17.55-13.495-2.39-3.182-4.21-6.481-5.453-9.904-.725-1.996-.76-2.863-.165-3.884.257-.431 1.352-1.499 2.149-2.094 1.325-.985 1.937-1.35 2.425-1.452.334-.072.915-.015 1.285.118Zm12.103 3.166c3.12.457 5.535 1.904 7.118 4.254.889 1.324 1.444 2.879 1.634 4.546.067.611.067 1.725-.005 1.91-.067.174-.283.41-.468.507-.2.103-.627.093-.863-.03-.396-.2-.514-.519-.514-1.38 0-1.33-.345-2.73-.94-3.819a7.805 7.805 0 0 0-2.868-2.981c-1.033-.616-2.56-1.072-3.952-1.185-.504-.041-.782-.144-.972-.365a.934.934 0 0 1-.077-1.16c.267-.415.679-.482 1.907-.297Zm1.094 3.874c1.013.216 1.789.6 2.452 1.222.853.805 1.32 1.78 1.526 3.181.139.913.082 1.273-.241 1.57-.304.277-.864.288-1.203.026-.247-.185-.324-.38-.38-.908-.067-.703-.19-1.196-.401-1.653-.452-.97-1.249-1.472-2.595-1.637-.633-.077-.823-.148-1.028-.39-.375-.446-.232-1.17.288-1.436.195-.098.277-.108.709-.083.267.016.663.062.873.108Z"/>
    </symbol>
    <symbol id="ok" viewBox="0 0 512 512"  fill="none">
        <linearGradient id="a" x1="256" x2="256" y2="512" gradientUnits="userSpaceOnUse"><stop offset="0" stop-color="#fcaf2b"/><stop offset="1" stop-color="#e03536"/></linearGradient><path fill="url(#a)" d="M256 0C114.841 0 0 114.841 0 256s114.841 256 256 256 256-114.841 256-256S397.159 0 256 0zm0 476c-121.309 0-220-98.692-220-220S134.691 36 256 36s220 98.692 220 220-98.691 220-220 220zm140.854-319.262a18 18 0 0 1 0 25.456L223.787 355.262a18 18 0 0 1-25.455 0l-83.186-83.188a18 18 0 0 1 25.454-25.456l70.459 70.46L371.4 156.738a18 18 0 0 1 25.454 0z" style="fill:#ff115c"/>
    </symbol>
    <symbol id="order1" viewBox="0 0 50 50"  fill="none">
        <circle cx="30.5" cy="9.5" r="1.5" fill="#ff115c"></circle><circle cx="36.5" cy="9.5" r="1.5" fill="#ff115c"></circle><circle cx="42.5" cy="9.5" r="1.5" fill="#ff115c"></circle><path fill-rule="evenodd" clip-rule="evenodd" d="M23 5C23 2.23858 25.2386 0 28 0H45C47.7614 0 50 2.23858 50 5V14C50 16.7614 47.7614 19 45 19H37.2222L33.6069 22.5596C33.3203 22.8418 32.9342 23 32.532 23C31.6859 23 31 22.3141 31 21.468V19H28C25.2386 19 23 16.7614 23 14V5ZM28 2C26.3431 2 25 3.34315 25 5V14C25 15.6569 26.3431 17 28 17H31C32.1046 17 33 17.8954 33 19V20.3505L35.819 17.5749C36.1931 17.2065 36.6971 17 37.2222 17H45C46.6569 17 48 15.6569 48 14V5C48 3.34315 46.6569 2 45 2H28ZM41 31C41 30.4477 40.5523 30 40 30H32C31.4477 30 31 30.4477 31 31C31 31.5523 31.4477 32 32 32H40C40.5523 32 41 31.5523 41 31ZM40 28C40.5523 28 41 27.5523 41 27C41 26.4477 40.5523 26 40 26H32C31.4477 26 31 26.4477 31 27C31 27.5523 31.4477 28 32 28H40ZM36 35C36 35.5523 35.5523 36 35 36H32C31.4477 36 31 35.5523 31 35C31 34.4477 31.4477 34 32 34H35C35.5523 34 36 34.4477 36 35ZM9.16666 42H9C8.44772 42 8 41.5523 8 41V39.4444C8 38.1111 8.88 36.9378 10.16 36.5644L15.0028 35.152C15.0009 35.1015 15 35.0509 15 35V33.5632C13.8811 32.5868 13.1382 31.1902 13.0174 29.6195C11.6865 28.5613 11.6658 26.4829 13 25.4175V25C13 21.6863 15.6863 19 19 19C21.9899 19 24.469 21.187 24.925 24.0485C24.9948 24.2187 25.0178 24.4076 24.9865 24.594C24.9954 24.7282 25 24.8636 25 25V25.4204C26.3992 26.4596 26.3614 28.6088 24.9811 29.6431C24.8559 31.2056 24.1144 32.5943 23 33.566V35C23 35.0509 22.9991 35.1015 22.9972 35.152L27.84 36.5644C29.12 36.9378 30 38.1111 30 39.4444V40H41.1667C41.7189 40 42.1667 40.4477 42.1667 41C42.1667 41.5523 41.7189 42 41.1667 42L29 42H9.16666ZM22.874 24C22.4299 22.2748 20.8638 21 19 21C19 22.6569 20.3431 24 22 24H22.874ZM17.0267 21.5198C16.1538 22.0159 15.4857 22.8308 15.1812 23.8063C15.43 23.7801 15.6979 23.7331 15.9651 23.6568C16.5294 23.4958 17.0143 23.2283 17.345 22.8287C17.1829 22.4164 17.0739 21.9772 17.0267 21.5198ZM18.4679 24.539C19.3725 25.4418 20.621 26 22 26H22.9091C22.9385 26 22.9692 25.9993 23.0012 25.9979C23.021 26.4099 23.2739 26.7768 23.6558 26.9404C24.142 27.1488 24.1798 27.8841 23.6424 28.1234C23.2562 28.2954 23 28.6803 23 29.1124V29.1708C23 31.2856 21.2856 33 19.1708 33H19H18.8344C16.7167 33 15 31.2833 15 29.1656V29.1114C15 28.6976 14.765 28.3229 14.3991 28.1404C13.8723 27.8776 13.8884 27.137 14.3926 26.89C14.7643 26.7078 15 26.3299 15 25.9159V25.8253C15.4638 25.8028 15.9872 25.7304 16.514 25.58C17.1652 25.3942 17.8711 25.0739 18.4679 24.539ZM21 34.7072C20.4247 34.8972 19.8098 35 19.1708 35H19H18.8344C18.1935 35 17.5768 34.8967 17 34.7058V35C17 36.1046 17.8954 37 19 37C20.1046 37 21 36.1046 21 35V34.7072ZM28 40V39.4444C28 39 27.7067 38.6089 27.28 38.4844L22.4245 37.0682C21.7237 38.2261 20.4522 39 19 39C17.5478 39 16.2763 38.2261 15.5755 37.0683L10.72 38.4844C10.2933 38.6089 10 39 10 39.4444V40H28Z" fill="#ff115c"></path><path opacity="0.1" d="M12.0322 39.2879L15.7522 38.3235C16.512 38.1265 17.2995 38.4213 17.9364 38.88C18.9932 39.6411 20.5355 40.1077 22.0887 38.9081C22.7099 38.4283 23.488 38.1265 24.2478 38.3235L27.9678 39.2879C28.5756 39.4455 29 39.994 29 40.6219C29 41.383 28.383 42 27.6219 42H12.3781C11.617 42 11 41.383 11 40.6219C11 39.994 11.4244 39.4455 12.0322 39.2879Z" fill="#ff115c"></path><path fill-rule="evenodd" clip-rule="evenodd" d="M21 14H8C5.23857 14 3 16.2386 3 19V44H1H0V45V47C0 48.6569 1.34315 50 3 50H47C48.6569 50 50 48.6569 50 47V45V44H49H47V21H45V44H5V19C5 17.3431 6.34315 16 8 16H21V14ZM2 46V47C2 47.5523 2.44772 48 3 48H19.382L18.382 46H2ZM47 48C47.5523 48 48 47.5523 48 47V46H31.618L30.618 48H47ZM28.382 48H21.618L20.618 46H29.382L28.382 48Z" fill="#ff115c"></path><path opacity="0.1" d="M36 8C36 5.79086 37.7909 4 40 4H48V15C48 16.6569 46.6569 18 45 18H36V8Z" fill="#ff115c"></path><rect opacity="0.1" x="1" y="46" width="19" height="2" fill="#ff115c"></rect><rect opacity="0.1" x="30" y="46" width="19" height="2" fill="#ff115c"></rect><path opacity="0.1" d="M18.1667 21C14.8333 21 14 24.242 14 25.8629C14.7357 26.0619 16.552 25.4797 18.1667 24.242C19.1667 26.1871 22.4722 26.1331 24 25.8629L23.5833 23.0262C23.1667 22.3508 21.5 21 18.1667 21Z" fill="#ff115c"></path>
    </symbol>
    <symbol id="order2" viewBox="0 0 50 50"  fill="none">
        <path fill-rule="evenodd" clip-rule="evenodd" d="M7 6C7 2.68629 9.68629 0 13 0H45C47.7614 0 50 2.23858 50 5V11C50 11.5523 49.5523 12 49 12H43V45.0001C43 47.7615 40.7615 50 38.0001 50H7C3.13401 50 0 46.866 0 43V40C0 39.4477 0.447715 39 1 39H7V37C7 36.4477 7.44772 36 8 36C8.55228 36 9 36.4477 9 37V39H34.0002C34.5525 39 35.0002 39.4477 35.0002 40V45.0001C35.0002 46.6569 36.3433 48 38.0001 48C39.6569 48 41 46.6569 41 45.0001V11C41 10.4477 41.4477 10 42 10H48V5C48 3.34315 46.6569 2 45 2H13C10.7909 2 9 3.79086 9 6V7C9 7.55228 8.55228 8 8 8C7.44772 8 7 7.55228 7 7V6ZM33.9998 48C33.3721 47.1644 33.0002 46.1257 33.0002 45.0001V41H8H2V43C2 45.7614 4.23858 48 7 48H33.9998ZM26 24C26 23.4477 26.4477 23 27 23H36C36.5523 23 37 23.4477 37 24C37 24.5523 36.5523 25 36 25H27C26.4477 25 26 24.5523 26 24ZM27 18C26.4477 18 26 18.4477 26 19C26 19.5523 26.4477 20 27 20H36C36.5523 20 37 19.5523 37 19C37 18.4477 36.5523 18 36 18H27ZM26 14C26 13.4477 26.4477 13 27 13H36C36.5523 13 37 13.4477 37 14C37 14.5523 36.5523 15 36 15H27C26.4477 15 26 14.5523 26 14ZM27 28C26.4477 28 26 28.4477 26 29C26 29.5523 26.4477 30 27 30H32C32.5523 30 33 29.5523 33 29C33 28.4477 32.5523 28 32 28H27ZM16.7071 17.2929C17.0976 17.6834 17.0976 18.3166 16.7071 18.7071L10.7071 24.7071C10.3166 25.0976 9.68342 25.0976 9.29289 24.7071L6.29289 21.7071C5.90237 21.3166 5.90237 20.6834 6.29289 20.2929C6.68342 19.9024 7.31658 19.9024 7.70711 20.2929L10 22.5858L15.2929 17.2929C15.6834 16.9024 16.3166 16.9024 16.7071 17.2929ZM11.3354 9.05793C11.1185 8.98069 10.8815 8.98069 10.6646 9.05793L0.664582 12.6184C0.266114 12.7602 0 13.1375 0 13.5604V19.0748C0 25.3788 3.48849 31.1653 9.06335 34.1084L10.5331 34.8843C10.8253 35.0386 11.1747 35.0386 11.4669 34.8843L12.9367 34.1084C18.5115 31.1653 22 25.3788 22 19.0748V13.5604C22 13.1375 21.7339 12.7602 21.3354 12.6184L11.3354 9.05793ZM2 19.0748V14.2659L11 11.0615L20 14.2659V19.0748C20 24.6372 16.9219 29.7429 12.0029 32.3397L11 32.8692L9.99707 32.3397C5.07808 29.7429 2 24.6372 2 19.0748Z" fill="#ff115c"></path><path opacity="0.1" fill-rule="evenodd" clip-rule="evenodd" d="M31.0454 43H0.824786C0.824786 46.346 3.53729 49.0585 6.88333 49.0585H34.3125V48.8875C32.4266 48.3515 31.0454 46.6163 31.0454 44.5585V43Z" fill="#365EDC"></path><path opacity="0.1" d="M43 2H36C33.2386 2 31 4.23858 31 7V39.9298H34.2542V45.7018L36.2881 49H39.9492L41.9831 46.9386V5.29825L43 2Z" fill="#365EDC"></path><path opacity="0.1" d="M11 34V13L21 16.3158V24.3077L16.8333 30.7692L11 34Z" fill="#365EDC"></path><path fill-rule="evenodd" clip-rule="evenodd" d="M43 5C43 3.34315 44.3431 2 46 2V1H42.9995C41.7853 1.91223 41 3.3644 41 5V11C41 11.5523 41.4477 12 42 12C42.5523 12 43 11.5523 43 11V5Z" fill="#ff115c"></path>
    </symbol>
    <symbol id="order3" viewBox="0 0 50 50"  fill="none">
        <circle cx="30.5" cy="9.5" r="1.5" fill="#ff115c"></circle><circle cx="36.5" cy="9.5" r="1.5" fill="#ff115c"></circle><circle cx="42.5" cy="9.5" r="1.5" fill="#ff115c"></circle><path fill-rule="evenodd" clip-rule="evenodd" d="M23 5C23 2.23858 25.2386 0 28 0H45C47.7614 0 50 2.23858 50 5V14C50 16.7614 47.7614 19 45 19H37.2222L33.6069 22.5596C33.3203 22.8418 32.9342 23 32.532 23C31.6859 23 31 22.3141 31 21.468V19H28C25.2386 19 23 16.7614 23 14V5ZM28 2C26.3431 2 25 3.34315 25 5V14C25 15.6569 26.3431 17 28 17H31C32.1046 17 33 17.8954 33 19V20.3505L35.819 17.5749C36.1931 17.2065 36.6971 17 37.2222 17H45C46.6569 17 48 15.6569 48 14V5C48 3.34315 46.6569 2 45 2H28ZM41 31C41 30.4477 40.5523 30 40 30H32C31.4477 30 31 30.4477 31 31C31 31.5523 31.4477 32 32 32H40C40.5523 32 41 31.5523 41 31ZM40 28C40.5523 28 41 27.5523 41 27C41 26.4477 40.5523 26 40 26H32C31.4477 26 31 26.4477 31 27C31 27.5523 31.4477 28 32 28H40ZM36 35C36 35.5523 35.5523 36 35 36H32C31.4477 36 31 35.5523 31 35C31 34.4477 31.4477 34 32 34H35C35.5523 34 36 34.4477 36 35ZM9.16666 42H9C8.44772 42 8 41.5523 8 41V39.4444C8 38.1111 8.88 36.9378 10.16 36.5644L15.0028 35.152C15.0009 35.1015 15 35.0509 15 35V33.5632C13.8811 32.5868 13.1382 31.1902 13.0174 29.6195C11.6865 28.5613 11.6658 26.4829 13 25.4175V25C13 21.6863 15.6863 19 19 19C21.9899 19 24.469 21.187 24.925 24.0485C24.9948 24.2187 25.0178 24.4076 24.9865 24.594C24.9954 24.7282 25 24.8636 25 25V25.4204C26.3992 26.4596 26.3614 28.6088 24.9811 29.6431C24.8559 31.2056 24.1144 32.5943 23 33.566V35C23 35.0509 22.9991 35.1015 22.9972 35.152L27.84 36.5644C29.12 36.9378 30 38.1111 30 39.4444V40H41.1667C41.7189 40 42.1667 40.4477 42.1667 41C42.1667 41.5523 41.7189 42 41.1667 42L29 42H9.16666ZM22.874 24C22.4299 22.2748 20.8638 21 19 21C19 22.6569 20.3431 24 22 24H22.874ZM17.0267 21.5198C16.1538 22.0159 15.4857 22.8308 15.1812 23.8063C15.43 23.7801 15.6979 23.7331 15.9651 23.6568C16.5294 23.4958 17.0143 23.2283 17.345 22.8287C17.1829 22.4164 17.0739 21.9772 17.0267 21.5198ZM18.4679 24.539C19.3725 25.4418 20.621 26 22 26H22.9091C22.9385 26 22.9692 25.9993 23.0012 25.9979C23.021 26.4099 23.2739 26.7768 23.6558 26.9404C24.142 27.1488 24.1798 27.8841 23.6424 28.1234C23.2562 28.2954 23 28.6803 23 29.1124V29.1708C23 31.2856 21.2856 33 19.1708 33H19H18.8344C16.7167 33 15 31.2833 15 29.1656V29.1114C15 28.6976 14.765 28.3229 14.3991 28.1404C13.8723 27.8776 13.8884 27.137 14.3926 26.89C14.7643 26.7078 15 26.3299 15 25.9159V25.8253C15.4638 25.8028 15.9872 25.7304 16.514 25.58C17.1652 25.3942 17.8711 25.0739 18.4679 24.539ZM21 34.7072C20.4247 34.8972 19.8098 35 19.1708 35H19H18.8344C18.1935 35 17.5768 34.8967 17 34.7058V35C17 36.1046 17.8954 37 19 37C20.1046 37 21 36.1046 21 35V34.7072ZM28 40V39.4444C28 39 27.7067 38.6089 27.28 38.4844L22.4245 37.0682C21.7237 38.2261 20.4522 39 19 39C17.5478 39 16.2763 38.2261 15.5755 37.0683L10.72 38.4844C10.2933 38.6089 10 39 10 39.4444V40H28Z" fill="#ff115c"></path><path opacity="0.1" d="M12.0322 39.2879L15.7522 38.3235C16.512 38.1265 17.2995 38.4213 17.9364 38.88C18.9932 39.6411 20.5355 40.1077 22.0887 38.9081C22.7099 38.4283 23.488 38.1265 24.2478 38.3235L27.9678 39.2879C28.5756 39.4455 29 39.994 29 40.6219C29 41.383 28.383 42 27.6219 42H12.3781C11.617 42 11 41.383 11 40.6219C11 39.994 11.4244 39.4455 12.0322 39.2879Z" fill="#ff115c"></path><path fill-rule="evenodd" clip-rule="evenodd" d="M21 14H8C5.23857 14 3 16.2386 3 19V44H1H0V45V47C0 48.6569 1.34315 50 3 50H47C48.6569 50 50 48.6569 50 47V45V44H49H47V21H45V44H5V19C5 17.3431 6.34315 16 8 16H21V14ZM2 46V47C2 47.5523 2.44772 48 3 48H19.382L18.382 46H2ZM47 48C47.5523 48 48 47.5523 48 47V46H31.618L30.618 48H47ZM28.382 48H21.618L20.618 46H29.382L28.382 48Z" fill="#ff115c"></path><path opacity="0.1" d="M36 8C36 5.79086 37.7909 4 40 4H48V15C48 16.6569 46.6569 18 45 18H36V8Z" fill="#ff115c"></path><rect opacity="0.1" x="1" y="46" width="19" height="2" fill="#ff115c"></rect><rect opacity="0.1" x="30" y="46" width="19" height="2" fill="#ff115c"></rect><path opacity="0.1" d="M18.1667 21C14.8333 21 14 24.242 14 25.8629C14.7357 26.0619 16.552 25.4797 18.1667 24.242C19.1667 26.1871 22.4722 26.1331 24 25.8629L23.5833 23.0262C23.1667 22.3508 21.5 21 18.1667 21Z" fill="#ff115c"></path>
    </symbol>
    <symbol id="arrow" viewBox="0 0 32 32"  fill="none">
        <path xmlns="http://www.w3.org/2000/svg" d="M18 9.1c-.3.5-.1 1.1.4 1.4l7.9 4.6H2c-.6 0-1 .4-1 1s.4 1 1 1h24.3l-7.9 4.6c-.5.3-.6.9-.4 1.4.3.5.9.6 1.4.4l11.1-6.4c.7-.4.7-1.3 0-1.7L19.4 8.7c-.5-.3-1.1-.1-1.4.4z" style="fill:#fff"/>
    </symbol>
    <symbol id="burger" viewBox="0 0 22 25"  fill="none">
        <path xmlns="http://www.w3.org/2000/svg" style=" stroke:none;fill-rule:nonzero;fill:rgb(100%,100%,100%);fill-opacity:1;" d="M 1.886719 10.53125 L 20.117188 10.53125 C 20.917969 10.53125 21.570312 9.789062 21.570312 8.882812 C 21.570312 7.972656 20.917969 7.230469 20.117188 7.230469 L 1.886719 7.230469 C 1.085938 7.230469 0.433594 7.972656 0.433594 8.882812 C 0.433594 9.785156 1.089844 10.53125 1.886719 10.53125 Z M 1.886719 17.769531 L 20.117188 17.769531 C 20.917969 17.769531 21.570312 17.027344 21.570312 16.117188 C 21.570312 15.210938 20.917969 14.46875 20.117188 14.46875 L 1.886719 14.46875 C 1.085938 14.46875 0.433594 15.210938 0.433594 16.117188 C 0.433594 17.027344 1.089844 17.769531 1.886719 17.769531 Z M 1.886719 25 L 20.117188 25 C 20.917969 25 21.570312 24.257812 21.570312 23.351562 C 21.570312 22.441406 20.917969 21.699219 20.117188 21.699219 L 1.886719 21.699219 C 1.085938 21.699219 0.433594 22.441406 0.433594 23.351562 C 0.433594 24.257812 1.089844 25 1.886719 25 Z M 1.886719 3.300781 L 20.117188 3.300781 C 20.917969 3.300781 21.570312 2.558594 21.570312 1.648438 C 21.570312 0.742188 20.914062 0 20.113281 0 L 1.886719 0 C 1.089844 -0.00390625 0.433594 0.742188 0.433594 1.648438 C 0.433594 2.554688 1.089844 3.300781 1.886719 3.300781 Z M 1.886719 3.300781 "/>
    </symbol>
</svg>

